<?xml version="1.0" encoding="UTF-8" standalone="no"?>
<svg
   xmlns:dc="http://purl.org/dc/elements/1.1/"
   xmlns:cc="http://creativecommons.org/ns#"
   xmlns:rdf="http://www.w3.org/1999/02/22-rdf-syntax-ns#"
   xmlns:svg="http://www.w3.org/2000/svg"
   xmlns="http://www.w3.org/2000/svg"
   xmlns:sodipodi="http://sodipodi.sourceforge.net/DTD/sodipodi-0.dtd"
   xmlns:inkscape="http://www.inkscape.org/namespaces/inkscape"
   width="32"
   height="32"
   viewBox="0 0 8.4666666 8.4666666"
   version="1.1"
   id="svg8"
   inkscape:version="1.0.2-2 (e86c870879, 2021-01-15)"
   sodipodi:docname="layers_sl.svg"
   inkscape:export-filename="D:\DEV_SRC\RxOT\DuAEF\inc\icons\w12/w12_layers.png"
   inkscape:export-xdpi="36.060001"
   inkscape:export-ydpi="36.060001">
  <defs
     id="defs2" />
  <sodipodi:namedview
     id="base"
     pagecolor="#ffffff"
     bordercolor="#666666"
     borderopacity="1.0"
     inkscape:pageopacity="0.0"
     inkscape:pageshadow="2"
     inkscape:zoom="11.313709"
     inkscape:cx="13.956459"
     inkscape:cy="23.979324"
     inkscape:document-units="mm"
     inkscape:current-layer="svg8"
     showgrid="false"
     units="px"
     inkscape:window-width="1858"
     inkscape:window-height="1057"
     inkscape:window-x="-5"
     inkscape:window-y="-1"
     inkscape:window-maximized="1"
     inkscape:document-rotation="0">
    <sodipodi:guide
       position="8.4666666,0"
       orientation="-32,0"
       id="guide854"
       inkscape:locked="false" />
    <sodipodi:guide
       position="8.4666666,8.4666666"
       orientation="0,-32"
       id="guide856"
       inkscape:locked="false" />
    <sodipodi:guide
       position="0,8.4666814"
       orientation="32,0"
       id="guide858"
       inkscape:locked="false" />
  </sodipodi:namedview>
  <metadata
     id="metadata5">
    <rdf:RDF>
      <cc:Work
         rdf:about="">
        <dc:format>image/svg+xml</dc:format>
        <dc:type
           rdf:resource="http://purl.org/dc/dcmitype/StillImage" />
        <dc:title />
      </cc:Work>
    </rdf:RDF>
  </metadata>
  <path
     id="path885"
     d="m 0.20755149,2.4539877 3.84530741,1.74437 c 0.1122523,0.05101 0.2391969,0.05101 0.3514493,0 l 3.8453072,-1.74437 c 0.273203,-0.1239731 0.273203,-0.5368313 0,-0.6608043 L 4.4044732,0.04864796 a 0.42271308,0.42271308 0 0 0 -0.3514493,0 L 0.20755149,1.793018 c -0.27320286,0.1239731 -0.27320286,0.5369966 0,0.6609697 z M 8.2497808,3.9112886 7.2908473,3.4766402 4.6225401,4.6861612 c -0.1247983,0.056621 -0.2573553,0.085344 -0.3938741,0.085344 -0.1365187,0 -0.2689107,-0.028724 -0.393874,-0.085344 L 1.1666498,3.4766402 0.20755149,3.9112886 c -0.27320286,0.1238077 -0.27320286,0.5365006 0,0.6603083 L 4.0528589,6.3146471 c 0.1122523,0.050844 0.2391969,0.050844 0.3514493,0 L 8.2497808,4.5715969 c 0.2732024,-0.1238077 0.2732024,-0.5365006 0,-0.6603083 z m 0,2.1096861 L 7.294479,5.5879775 4.6225401,6.7991486 c -0.1247983,0.056621 -0.2573553,0.085345 -0.3938741,0.085345 -0.1365187,0 -0.2689107,-0.028724 -0.393874,-0.085345 L 1.1630181,5.5879775 0.20755149,6.0209747 c -0.27320286,0.123808 -0.27320286,0.5365009 0,0.6603084 L 4.0528589,8.4243334 c 0.1122523,0.050843 0.2391969,0.050843 0.3514493,0 L 8.2497808,6.6812831 c 0.2732024,-0.1238075 0.2732024,-0.5365004 0,-0.6603084 z"
     inkscape:connector-curvature="0"
     style="fill:#b1b1b1;fill-opacity:1;stroke-width:0.0165077" />
</svg>
